<svg xmlns="http://www.w3.org/2000/svg" xmlns:xlink="http://www.w3.org/1999/xlink" width="1000" height="700" version="1.1">
<style type="text/css">
.l0{
  fill: #000000;
  stroke: #000000;
  stroke-linecap:round;
  stroke-linejoin:round;
  stroke-width: 3.43475;
}
.l1{
  fill: #00ccee;
  stroke: #00ccee;
  stroke-linecap:round;
  stroke-linejoin:round;
  stroke-width: 3.43475;
}
.l2{
  fill: #4f4f4f; fill-opacity: 0.2;
  stroke: #4f4f4f;
  stroke-linecap:round;
  stroke-linejoin:round;
  stroke-width: 3.43475;
}
.l3{
  fill: #cccccc; fill-opacity: 0.5;
  stroke: #cccccc;
  stroke-linecap:round;
  stroke-linejoin:round;
  stroke-width: 3.43475;
}
.l4{
  fill: #88dd00;
  stroke: #88dd00;
  stroke-linecap:round;
  stroke-linejoin:round;
  stroke-width: 3.43475;
}
.l5{
  fill: #bb2200;
  stroke: #bb2200;
  stroke-linecap:round;
  stroke-linejoin:round;
  stroke-width: 3.43475;
}
.l6{
  fill: #00ccee; fill-opacity: 0.5;
  stroke: #00ccee;
  stroke-linecap:round;
  stroke-linejoin:round;
  stroke-width: 3.43475;
}
.l7{
  fill: #ff0000; fill-opacity: 0.5;
  stroke: #ff0000;
  stroke-linecap:round;
  stroke-linejoin:round;
  stroke-width: 3.43475;
}
.l8{
  fill: #ffff00; fill-opacity: 0.5;
  stroke: #ffff00;
  stroke-linecap:round;
  stroke-linejoin:round;
  stroke-width: 3.43475;
}
.l9{
  fill: #ffffff; fill-opacity: 0.5;
  stroke: #ffffff;
  stroke-linecap:round;
  stroke-linejoin:round;
  stroke-width: 3.43475;
}
.l10{
  fill: #ff00ff;
  stroke: #ff00ff;
  stroke-linecap:round;
  stroke-linejoin:round;
  stroke-width: 3.43475;
}
.l11{
  fill: #00ff00; fill-opacity: 0.5;
  stroke: #00ff00;
  stroke-linecap:round;
  stroke-linejoin:round;
  stroke-width: 3.43475;
}
.l12{
  fill: #0000ff; fill-opacity: 0.5;
  stroke: #0000ff;
  stroke-linecap:round;
  stroke-linejoin:round;
  stroke-width: 3.43475;
}
.l13{
  fill: #aaaa00; fill-opacity: 0.5;
  stroke: #aaaa00;
  stroke-linecap:round;
  stroke-linejoin:round;
  stroke-width: 3.43475;
}
.l14{
  fill: #aaccaa; fill-opacity: 0.2;
  stroke: #aaccaa;
  stroke-linecap:round;
  stroke-linejoin:round;
  stroke-width: 3.43475;
}
.l15{
  fill: #ff7777; fill-opacity: 0.5;
  stroke: #ff7777;
  stroke-linecap:round;
  stroke-linejoin:round;
  stroke-width: 3.43475;
}
.l16{
  fill: #bfff81; fill-opacity: 0.5;
  stroke: #bfff81;
  stroke-linecap:round;
  stroke-linejoin:round;
  stroke-width: 3.43475;
}
.l17{
  fill: #00ffcc; fill-opacity: 0.2;
  stroke: #00ffcc;
  stroke-linecap:round;
  stroke-linejoin:round;
  stroke-width: 3.43475;
}
.l18{
  fill: #ce0097; fill-opacity: 0.5;
  stroke: #ce0097;
  stroke-linecap:round;
  stroke-linejoin:round;
  stroke-width: 3.43475;
}
.l19{
  fill: #d2d46b; fill-opacity: 0.2;
  stroke: #d2d46b;
  stroke-linecap:round;
  stroke-linejoin:round;
  stroke-width: 3.43475;
}
.l20{
  fill: #ef6158; fill-opacity: 0.2;
  stroke: #ef6158;
  stroke-linecap:round;
  stroke-linejoin:round;
  stroke-width: 3.43475;
}
.l21{
  fill: #fdb200; fill-opacity: 0.2;
  stroke: #fdb200;
  stroke-linecap:round;
  stroke-linejoin:round;
  stroke-width: 3.43475;
}
text {font-family: Sans-Serif;}
</style>
<rect class="l0" x="0" y="0" width="1000" height="700"/>
<text fill="#cccccc"  xml:space="preserve" font-size="49.6131" transform="translate(194.689, 308.385)" >@symname</text>
<text fill="#cccccc"  xml:space="preserve" font-size="33.0754" transform="translate(929.344, 51.6636)" >@name</text>
<text fill="#cccccc"  xml:space="preserve" font-size="33.0754" transform="translate(102.459, 108.91)" >D0</text>
<text fill="#cccccc"  xml:space="preserve" font-size="33.0754" transform="translate(829.541, 331.532)" >OUT</text>
<text fill="#cccccc"  xml:space="preserve" font-size="33.0754" transform="translate(102.459, 172.516)" >D1</text>
<text fill="#cccccc"  xml:space="preserve" font-size="33.0754" transform="translate(102.459, 236.123)" >D2</text>
<text fill="#cccccc"  xml:space="preserve" font-size="33.0754" transform="translate(102.459, 299.729)" >D3</text>
<text fill="#cccccc"  xml:space="preserve" font-size="33.0754" transform="translate(102.459, 363.336)" >D4</text>
<text fill="#cccccc"  xml:space="preserve" font-size="33.0754" transform="translate(102.459, 426.942)" >D5</text>
<text fill="#cccccc"  xml:space="preserve" font-size="33.0754" transform="translate(102.459, 490.549)" >D6</text>
<text fill="#cccccc"  xml:space="preserve" font-size="33.0754" transform="translate(102.459, 554.155)" >D7</text>
<text fill="#cccccc"  xml:space="preserve" font-size="33.0754" transform="translate(452.295, 541.661)" >VGND</text>
<path class="l4" d="M86.5574 59.7951L913.443 59.7951"/>
<path class="l4" d="M86.5574 568.648L913.443 568.648"/>
<path class="l4" d="M86.5574 59.7951L86.5574 568.648"/>
<path class="l4" d="M913.443 59.7951L913.443 568.648"/>
<path class="l4" d="M22.9508 91.5984L86.5574 91.5984"/>
<path class="l4" d="M913.443 314.221L977.049 314.221"/>
<path class="l4" d="M22.9508 155.205L86.5574 155.205"/>
<path class="l4" d="M22.9508 218.811L86.5574 218.811"/>
<path class="l4" d="M22.9508 282.418L86.5574 282.418"/>
<path class="l4" d="M22.9508 346.025L86.5574 346.025"/>
<path class="l4" d="M22.9508 409.631L86.5574 409.631"/>
<path class="l4" d="M22.9508 473.238L86.5574 473.238"/>
<path class="l4" d="M22.9508 536.844L86.5574 536.844"/>
<path class="l5" d="M15 83.6475L30.9016 83.6475L30.9016 99.5492L15 99.5492L15 83.6475z"/>
<path class="l5" d="M969.098 306.27L985 306.27L985 322.172L969.098 322.172L969.098 306.27z"/>
<path class="l5" d="M15 147.254L30.9016 147.254L30.9016 163.156L15 163.156L15 147.254z"/>
<path class="l5" d="M15 210.861L30.9016 210.861L30.9016 226.762L15 226.762L15 210.861z"/>
<path class="l5" d="M15 274.467L30.9016 274.467L30.9016 290.369L15 290.369L15 274.467z"/>
<path class="l5" d="M15 338.074L30.9016 338.074L30.9016 353.975L15 353.975L15 338.074z"/>
<path class="l5" d="M15 401.68L30.9016 401.68L30.9016 417.582L15 417.582L15 401.68z"/>
<path class="l5" d="M15 465.287L30.9016 465.287L30.9016 481.189L15 481.189L15 465.287z"/>
<path class="l5" d="M15 528.893L30.9016 528.893L30.9016 544.795L15 544.795L15 528.893z"/>
<path class="l5" d="M492.049 624.303L507.951 624.303L507.951 640.205L492.049 640.205L492.049 624.303z"/>
<path class="l7" d="M500 568.648L500 632.254"/>
</svg>
